PathFileType	4	(X/Y/Z)	./resultDataOpenSim/trcMotMarkerGrf/sub10/qtm-03-07.trc
DataRate	CameraRate	NumFrames	NumMarkers	Units	OrigDataRate	OrigDataStartFrame	OrigNumFrames
250.000000	250.000000	12	24	m	250.000000	65	517
Frame#	Time	L.Toe.Tip			R.Toe.Tip			L.Ankle.Lat			R.Ankle.Lat			L.Ankle.Med			R.Ankle.Med			L.Heel			R.Heel			L.Knee.Lat			R.Knee.Lat			L.Knee.Med			R.Knee.Med			L.Thigh.Upper			R.Thigh.Upper			L.ASIS			R.ASIS			V.Sacral			L.Acromium			R.Acromium			C7			L.Elbow			R.Elbow			L.Wrist.Lat			R.Wrist.Lat
		X1	Y1	Z1	X2	Y2	Z2	X3	Y3	Z3	X4	Y4	Z4	X5	Y5	Z5	X6	Y6	Z6	X7	Y7	Z7	X8	Y8	Z8	X9	Y9	Z9	X10	Y10	Z10	X11	Y11	Z11	X12	Y12	Z12	X13	Y13	Z13	X14	Y14	Z14	X15	Y15	Z15	X16	Y16	Z16	X17	Y17	Z17	X18	Y18	Z18	X19	Y19	Z19	X20	Y20	Z20	X21	Y21	Z21	X22	Y22	Z22	X23	Y23	Z23	X24	Y24	Z24

65	0.256	-1.4360616	0.041979754	-0.14041605	-0.73231538	0.041524298	0.060383045	-1.4685361	0.17002699	-0.17913368	-0.87359878	0.05256176	0.087788575	-1.4423398	0.17222542	-0.10031595	-0.85327742	0.081376725	0.0066175027	-1.5252661	0.20691919	-0.1338013	-0.92177269	0.028514232	0.035518453	-1.1666066	0.41462683	-0.18579062	-0.88730739	0.45026988	0.12195447	-1.1586134	0.37663259	-0.071235353	-0.88053507	0.45993662	-0.0047731189	-1.0694312	0.7851859	-0.21141618	-1.0161747	0.8509848	0.16973696	-0.99352452	0.8912028	-0.1585689	-0.96181579	0.93152344	0.079432062	-1.1769683	0.92565839	-0.015183781	-1.0178669	1.379476	-0.19040705	-1.0626722	1.3796825	0.12884596	-1.1168146	1.4109737	-0.040692741	-1.1228011	1.051672	-0.26087003	-1.2041508	1.0608624	0.14837527	-0.99529627	0.84185434	-0.24144464	-1.1859989	0.8551976	0.27299479
66	0.26	-1.4331934	0.04356702	-0.14041482	-0.73202179	0.04122287	0.06015381	-1.4606017	0.17300661	-0.17919882	-0.87335938	0.052580843	0.0876008	-1.434805	0.17433065	-0.10028353	-0.85311291	0.081159384	0.0062990309	-1.5161051	0.21181009	-0.13314544	-0.92168521	0.028556898	0.035482635	-1.1571796	0.41399192	-0.1857075	-0.88450353	0.45059834	0.12223239	-1.1483372	0.37464997	-0.071603557	-0.87725712	0.45977111	-0.0046744962	-1.062993	0.78461505	-0.21033077	-1.0106267	0.85188967	0.17055	-0.98770418	0.89139662	-0.15737299	-0.95622084	0.93228946	0.080161536	-1.1710029	0.92622246	-0.014507542	-1.0125068	1.380216	-0.18927956	-1.0576787	1.3801975	0.12986494	-1.1116736	1.4112997	-0.039748915	-1.1181455	1.0529849	-0.26015187	-1.1980127	1.0610723	0.14953872	-0.99182522	0.84232946	-0.2413274	-1.1799435	0.8556773	0.27469064
67	0.264	-1.4301507	0.045290694	-0.14046632	-0.73176577	0.040974921	0.06004029	-1.4525848	0.17608981	-0.17923041	-0.87323964	0.052574598	0.087427084	-1.4269558	0.17651038	-0.1002224	-0.85294776	0.080960417	0.006017958	-1.506376	0.21679681	-0.13275299	-0.92161189	0.028584493	0.035443458	-1.1475264	0.41335231	-0.18571196	-0.88153462	0.450778	0.12239413	-1.1379089	0.37268303	-0.071938256	-0.87406778	0.45962229	-0.0046480598	-1.0564961	0.7840505	-0.20916995	-1.0051219	0.85276853	0.17139833	-0.98194073	0.89158052	-0.15619293	-0.95069083	0.93301382	0.080915103	-1.165252	0.92677434	-0.013885356	-1.0072146	1.3809352	-0.18819536	-1.0526974	1.3807019	0.130875	-1.1065522	1.4116351	-0.038810193	-1.1135011	1.0542498	-0.25947724	-1.1918588	1.0612445	0.15072986	-0.98830925	0.84280535	-0.24117801	-1.1738017	0.85610835	0.27637507
68	0.268	-1.4269193	0.047110233	-0.14058384	-0.73154984	0.040775021	0.059951541	-1.4445034	0.17924026	-0.17923846	-0.87315542	0.052560927	0.087278279	-1.4187794	0.17874983	-0.10016752	-0.85278837	0.080790432	0.0057801679	-1.4959046	0.22180689	-0.13269959	-0.92155506	0.028600979	0.035410476	-1.1377514	0.41272628	-0.18574445	-0.87825375	0.45084084	0.12248114	-1.1273562	0.37076965	-0.072227991	-0.87097212	0.45950164	-0.0046770266	-1.0500357	0.78349644	-0.20799704	-0.99958679	0.85362277	0.17229643	-0.97623912	0.89176017	-0.1550253	-0.94523107	0.93369684	0.081685549	-1.1597098	0.92730925	-0.01330773	-1.0019646	1.381644	-0.18715321	-1.047716	1.3811961	0.1318747	-1.1014514	1.4119949	-0.037875708	-1.1088637	1.0554618	-0.25883336	-1.1857025	1.0613584	0.15193954	-0.9847744	0.84327562	-0.24100428	-1.1675937	0.85648493	0.27805084
69	0.272	-1.4234687	0.049003066	-0.14074734	-0.73137146	0.040613339	0.059831152	-1.436308	0.18241963	-0.17921829	-0.87297021	0.052584249	0.087160123	-1.4104235	0.18103733	-0.10009723	-0.85264824	0.080654806	0.0055860826	-1.4849809	0.22671252	-0.1327451	-0.92151595	0.028610452	0.035390561	-1.1279133	0.41212921	-0.18578608	-0.87462929	0.45092008	0.12260535	-1.1167054	0.3689859	-0.072445888	-0.86810313	0.45939687	-0.0047247368	-1.0436457	0.78296066	-0.20684586	-0.99402415	0.85445109	0.17323187	-0.97061222	0.89193595	-0.153878	-0.93981225	0.93433633	0.082455093	-1.154335	0.9278116	-0.012758815	-0.99673682	1.3823514	-0.18615152	-1.0427148	1.3816791	0.13286026	-1.0963741	1.4123889	-0.036948912	-1.1042303	1.0566204	-0.25821116	-1.179558	1.0613983	0.15315829	-0.98123151	0.8437319	-0.24081491	-1.1613967	0.85679284	0.27971514
70	0.276	-1.419806	0.050948641	-0.14090361	-0.73122172	0.040480322	0.059677994	-1.427924	0.18558837	-0.17914782	-0.87266294	0.05265508	0.087067552	-1.4019687	0.18336164	-0.099982035	-0.8525337	0.080548949	0.0054283221	-1.4740718	0.23140752	-0.13261172	-0.92149064	0.028615588	0.035383837	-1.1179568	0.41156756	-0.18586592	-0.87074702	0.45110732	0.12283954	-1.105954	0.3674204	-0.072579389	-0.86558302	0.45929375	-0.0047628855	-1.0372278	0.78246472	-0.2056698	-0.98852849	0.85524274	0.17415268	-0.96506938	0.89211226	-0.15276786	-0.93434189	0.93492362	0.083193488	-1.1490703	0.92826918	-0.012234049	-0.99152054	1.3830548	-0.1851925	-1.0376986	1.3821508	0.13383537	-1.0913158	1.412825	-0.036032499	-1.0996028	1.0577272	-0.25760821	-1.1734245	1.0613858	0.15439438	-0.97767309	0.84417253	-0.240617	-1.1553389	0.85701121	0.2813597
71	0.28	-1.4159782	0.052928125	-0.14099689	-0.73109005	0.040369449	0.059527089	-1.4193094	0.18869318	-0.17901345	-0.87239239	0.052721998	0.086982007	-1.3933758	0.18570339	-0.099826258	-0.85243755	0.080462586	0.0052961706	-1.4633323	0.2358416	-0.13226773	-0.92147113	0.028618362	0.035384354	-1.107762	0.41104372	-0.18602163	-0.86690467	0.45136926	0.12314595	-1.0950991	0.36614183	-0.072629142	-0.86335087	0.45919389	-0.0047774886	-1.0306239	0.78203942	-0.20437922	-0.98320767	0.85598432	0.1749998	-0.95962364	0.89230188	-0.15171409	-0.92870347	0.93544616	0.083872393	-1.1438698	0.92867973	-0.011736763	-0.98631025	1.3837432	-0.18427747	-1.0326641	1.3826104	0.13480448	-1.0862624	1.413313	-0.035122376	-1.094982	1.0587867	-0.25702221	-1.167284	1.0613636	0.15567155	-0.97408676	0.84460793	-0.2404111	-1.1494723	0.85713864	0.28298378
72	0.284	-1.4119403	0.054965666	-0.14104198	-0.73097105	0.040274998	0.059410061	-1.4104648	0.19168366	-0.17882121	-0.87234429	0.052720277	0.086883818	-1.3846007	0.18802558	-0.099631475	-0.85234863	0.080386566	0.0051803509	-1.452646	0.23999347	-0.13184284	-0.92145235	0.02862011	0.035385955	-1.0973214	0.41057257	-0.18622465	-0.86341668	0.45161227	0.12342714	-1.0842136	0.36518163	-0.072582264	-0.86123706	0.45910211	-0.0047729438	-1.0238244	0.78170667	-0.20297926	-0.97808804	0.85667632	0.17576049	-0.9543004	0.89251995	-0.15073536	-0.92288458	0.93590835	0.084496132	-1.1387123	0.92905466	-0.011262291	-0.98110298	1.3844117	-0.1833999	-1.0275873	1.3830594	0.13576565	-1.0812005	1.4138573	-0.034213113	-1.0903669	1.0598075	-0.25644734	-1.1611182	1.0613531	0.15701099	-0.97045905	0.84505637	-0.24018858	-1.1436291	0.85722786	0.28460463
73	0.288	-1.4074138	0.057167602	-0.14117398	-0.73086581	0.040191088	0.059328892	-1.401408	0.19454032	-0.17858621	-0.87256815	0.052630903	0.08676876	-1.3756506	0.19028677	-0.099373001	-0.85226325	0.080317112	0.0050739125	-1.4419478	0.24384799	-0.13141067	-0.92143614	0.028621148	0.035387699	-1.0868577	0.41017418	-0.18633168	-0.86030901	0.45178747	0.1236219	-1.0734131	0.36454102	-0.072416132	-0.85909832	0.45901876	-0.0047700891	-1.0171195	0.78146399	-0.20165449	-0.97311876	0.85732801	0.17646222	-0.94909753	0.89277632	-0.14984344	-0.91709507	0.9363573	0.085132902	-1.1335949	0.92942134	-0.010793603	-0.97590508	1.3850664	-0.1825545	-1.0224721	1.3835094	0.13671944	-1.0761255	1.4144549	-0.033304728	-1.0857594	1.0608	-0.255874	-1.1549204	1.0613488	0.15841696	-0.96678191	0.84553068	-0.23994274	-1.1375299	0.85735667	0.28624039
74	0.292	-1.4020237	0.059652144	-0.14154921	-0.73077676	0.04011469	0.059261784	-1.3921668	0.19727357	-0.17831934	-0.87293324	0.052498437	0.086650847	-1.366558	0.19247422	-0.099039314	-0.85218193	0.080256503	0.0049713656	-1.4313211	0.24740004	-0.13094529	-0.92142766	0.028621093	0.035391779	-1.0765655	0.40985482	-0.186229	-0.8573877	0.45190159	0.12372764	-1.0627296	0.36421513	-0.072117971	-0.85685128	0.4589523	-0.0047840646	-1.0108556	0.78130213	-0.20060359	-0.96823543	0.85793976	0.17712293	-0.94390964	0.89308541	-0.14902402	-0.9116697	0.93686558	0.085895058	-1.1285227	0.92980498	-0.010319196	-0.97072437	1.3857181	-0.18174864	-1.0173259	1.3839774	0.13765946	-1.0710361	1.4151044	-0.032399908	-1.0811639	1.0617727	-0.25529385	-1.1486937	1.0613452	0.15987108	-0.96306603	0.84603095	-0.23967969	-1.1310351	0.85755417	0.28788466
75	0.296	-1.3955966	0.062410569	-0.14218002	-0.73070384	0.040046257	0.059188348	-1.3827858	0.19991246	-0.17801969	-0.87323531	0.052391943	0.086545189	-1.3573827	0.1946099	-0.098638326	-0.85210098	0.080208539	0.004866991	-1.4209223	0.2506562	-0.13038269	-0.92143021	0.028619458	0.035397174	-1.0663069	0.40961618	-0.18600754	-0.85449642	0.45197989	0.12376917	-1.0520938	0.36420444	-0.071690478	-0.85452081	0.45892068	-0.0048016635	-1.0050643	0.78123835	-0.19983186	-0.96339711	0.85850728	0.17773301	-0.9385721	0.89347492	-0.14823411	-0.90675945	0.93746475	0.086837987	-1.1234996	0.93020846	-0.0098470541	-0.9655582	1.3863762	-0.18098811	-1.0121107	1.3844738	0.13856524	-1.0659277	1.4158079	-0.0315001	-1.0765839	1.0627348	-0.25470501	-1.1424438	1.061347	0.16134219	-0.9593322	0.84655447	-0.23940871	-1.1241699	0.85779272	0.28951574
76	0.3	-1.3881921	0.06528089	-0.14293499	-0.73064573	0.039986795	0.05910677	-1.3733163	0.20250348	-0.17767282	-0.87337099	0.052342402	0.086447647	-1.3481337	0.19672128	-0.098181914	-0.85201418	0.080170766	0.0047545735	-1.410869	0.25363088	-0.12968071	-0.92144315	0.028616241	0.035398232	-1.0558779	0.40947468	-0.1858061	-0.85157708	0.45205052	0.12377081	-1.041449	0.36449814	-0.071153348	-0.85221228	0.45893618	-0.0047974202	-0.99953126	0.78130867	-0.19921487	-0.9585858	0.85903185	0.17827431	-0.93303203	0.89396465	-0.14743985	-0.90215242	0.93810566	0.087873444	-1.1185229	0.93062373	-0.0093942029	-0.96040184	1.3870487	-0.18025538	-1.0068024	1.3850021	0.13942566	-1.0607994	1.4165625	-0.030606696	-1.0720185	1.0637022	-0.25411116	-1.1361748	1.0613591	0.16280549	-0.95558616	0.84711042	-0.23912803	-1.1169766	0.85804197	0.29112126
